<mxfile host="app.diagrams.net" modified="2022-10-06T11:52:35.021Z" agent="5.0 (Windows NT 10.0; Win64; x64) AppleWebKit/537.36 (KHTML, like Gecko) Chrome/105.0.0.0 Safari/537.36" etag="AMYIqwVKh4iLWro1DUQn" version="20.4.0" type="github">
  <diagram name="Page-1" id="13e1069c-82ec-6db2-03f1-153e76fe0fe0">
    <mxGraphModel dx="1422" dy="1644" grid="1" gridSize="10" guides="1" tooltips="1" connect="1" arrows="1" fold="1" page="1" pageScale="1" pageWidth="1100" pageHeight="850" background="none" math="0" shadow="0">
      <root>
        <mxCell id="0" />
        <mxCell id="1" parent="0" />
        <mxCell id="7baba1c4bc27f4b0-2" value="форма деталей заказа" style="shape=umlLifeline;perimeter=lifelinePerimeter;whiteSpace=wrap;html=1;container=1;collapsible=0;recursiveResize=0;outlineConnect=0;rounded=1;shadow=0;comic=0;labelBackgroundColor=none;strokeWidth=1;fontFamily=Verdana;fontSize=12;align=center;" parent="1" vertex="1">
          <mxGeometry x="640" width="130" height="1000" as="geometry" />
        </mxCell>
        <mxCell id="SpWWyYX7rLWQM5dkeuoQ-13" value="" style="html=1;points=[];perimeter=orthogonalPerimeter;rounded=0;shadow=0;comic=0;labelBackgroundColor=none;strokeWidth=1;fontFamily=Verdana;fontSize=12;align=center;" vertex="1" parent="7baba1c4bc27f4b0-2">
          <mxGeometry x="55" y="240" width="20" height="40" as="geometry" />
        </mxCell>
        <mxCell id="SpWWyYX7rLWQM5dkeuoQ-18" value="" style="html=1;points=[];perimeter=orthogonalPerimeter;rounded=0;shadow=0;comic=0;labelBackgroundColor=none;strokeWidth=1;fontFamily=Verdana;fontSize=12;align=center;" vertex="1" parent="7baba1c4bc27f4b0-2">
          <mxGeometry x="55" y="360" width="20" height="40" as="geometry" />
        </mxCell>
        <mxCell id="SpWWyYX7rLWQM5dkeuoQ-22" value="" style="html=1;points=[];perimeter=orthogonalPerimeter;rounded=0;shadow=0;comic=0;labelBackgroundColor=none;strokeWidth=1;fontFamily=Verdana;fontSize=12;align=center;" vertex="1" parent="7baba1c4bc27f4b0-2">
          <mxGeometry x="55" y="480" width="20" height="40" as="geometry" />
        </mxCell>
        <mxCell id="SpWWyYX7rLWQM5dkeuoQ-26" value="" style="html=1;points=[];perimeter=orthogonalPerimeter;rounded=0;shadow=0;comic=0;labelBackgroundColor=none;strokeWidth=1;fontFamily=Verdana;fontSize=12;align=center;" vertex="1" parent="7baba1c4bc27f4b0-2">
          <mxGeometry x="55" y="559.9971606864275" width="20" height="91.73166926677067" as="geometry" />
        </mxCell>
        <mxCell id="SpWWyYX7rLWQM5dkeuoQ-30" value="" style="html=1;points=[];perimeter=orthogonalPerimeter;rounded=0;shadow=0;comic=0;labelBackgroundColor=none;strokeWidth=1;fontFamily=Verdana;fontSize=12;align=center;" vertex="1" parent="7baba1c4bc27f4b0-2">
          <mxGeometry x="55" y="719.9971606864275" width="20" height="91.73166926677067" as="geometry" />
        </mxCell>
        <mxCell id="SpWWyYX7rLWQM5dkeuoQ-32" value="" style="endArrow=open;html=1;rounded=0;endFill=0;endSize=12;entryX=-0.15;entryY=0.025;entryDx=0;entryDy=0;entryPerimeter=0;" edge="1" parent="7baba1c4bc27f4b0-2" target="SpWWyYX7rLWQM5dkeuoQ-31">
          <mxGeometry width="50" height="50" relative="1" as="geometry">
            <mxPoint x="75" y="720" as="sourcePoint" />
            <mxPoint x="220" y="721" as="targetPoint" />
          </mxGeometry>
        </mxCell>
        <mxCell id="SpWWyYX7rLWQM5dkeuoQ-43" value="" style="html=1;points=[];perimeter=orthogonalPerimeter;rounded=0;shadow=0;comic=0;labelBackgroundColor=none;strokeWidth=1;fontFamily=Verdana;fontSize=12;align=center;" vertex="1" parent="7baba1c4bc27f4b0-2">
          <mxGeometry x="50" y="879.9971606864275" width="20" height="91.73166926677067" as="geometry" />
        </mxCell>
        <mxCell id="SpWWyYX7rLWQM5dkeuoQ-46" value="" style="endArrow=open;html=1;rounded=0;endFill=0;endSize=12;entryX=-0.15;entryY=0;entryDx=0;entryDy=0;entryPerimeter=0;" edge="1" parent="7baba1c4bc27f4b0-2" target="SpWWyYX7rLWQM5dkeuoQ-44">
          <mxGeometry width="50" height="50" relative="1" as="geometry">
            <mxPoint x="70" y="880" as="sourcePoint" />
            <mxPoint x="295" y="880" as="targetPoint" />
          </mxGeometry>
        </mxCell>
        <mxCell id="7baba1c4bc27f4b0-3" value="заказ №1234" style="shape=umlLifeline;perimeter=lifelinePerimeter;whiteSpace=wrap;html=1;container=1;collapsible=0;recursiveResize=0;outlineConnect=0;rounded=1;shadow=0;comic=0;labelBackgroundColor=none;strokeWidth=1;fontFamily=Verdana;fontSize=12;align=center;" parent="1" vertex="1">
          <mxGeometry x="880" width="140" height="1000" as="geometry" />
        </mxCell>
        <mxCell id="SpWWyYX7rLWQM5dkeuoQ-27" value="" style="html=1;points=[];perimeter=orthogonalPerimeter;rounded=0;shadow=0;comic=0;labelBackgroundColor=none;strokeWidth=1;fontFamily=Verdana;fontSize=12;align=center;" vertex="1" parent="7baba1c4bc27f4b0-3">
          <mxGeometry x="60" y="560" width="20" height="40" as="geometry" />
        </mxCell>
        <mxCell id="SpWWyYX7rLWQM5dkeuoQ-28" value="" style="endArrow=open;html=1;rounded=0;endFill=0;endSize=12;" edge="1" parent="7baba1c4bc27f4b0-3" source="SpWWyYX7rLWQM5dkeuoQ-26">
          <mxGeometry width="50" height="50" relative="1" as="geometry">
            <mxPoint x="-85" y="559" as="sourcePoint" />
            <mxPoint x="60" y="560" as="targetPoint" />
          </mxGeometry>
        </mxCell>
        <mxCell id="SpWWyYX7rLWQM5dkeuoQ-31" value="" style="html=1;points=[];perimeter=orthogonalPerimeter;rounded=0;shadow=0;comic=0;labelBackgroundColor=none;strokeWidth=1;fontFamily=Verdana;fontSize=12;align=center;" vertex="1" parent="7baba1c4bc27f4b0-3">
          <mxGeometry x="60" y="720" width="20" height="40" as="geometry" />
        </mxCell>
        <mxCell id="SpWWyYX7rLWQM5dkeuoQ-44" value="" style="html=1;points=[];perimeter=orthogonalPerimeter;rounded=0;shadow=0;comic=0;labelBackgroundColor=none;strokeWidth=1;fontFamily=Verdana;fontSize=12;align=center;" vertex="1" parent="7baba1c4bc27f4b0-3">
          <mxGeometry x="60" y="880" width="20" height="40" as="geometry" />
        </mxCell>
        <mxCell id="7baba1c4bc27f4b0-8" value="выбор варианта заказа&lt;span style=&quot;white-space: pre;&quot;&gt;	&lt;/span&gt;" style="shape=umlLifeline;perimeter=lifelinePerimeter;whiteSpace=wrap;html=1;container=1;collapsible=0;recursiveResize=0;outlineConnect=0;rounded=1;shadow=0;comic=0;labelBackgroundColor=none;strokeWidth=1;fontFamily=Verdana;fontSize=12;align=center;" parent="1" vertex="1">
          <mxGeometry x="350" width="245" height="1000" as="geometry" />
        </mxCell>
        <mxCell id="SpWWyYX7rLWQM5dkeuoQ-11" value="" style="html=1;points=[];perimeter=orthogonalPerimeter;rounded=0;shadow=0;comic=0;labelBackgroundColor=none;strokeWidth=1;fontFamily=Verdana;fontSize=12;align=center;" vertex="1" parent="7baba1c4bc27f4b0-8">
          <mxGeometry x="112.5" y="120" width="20" height="40" as="geometry" />
        </mxCell>
        <mxCell id="SpWWyYX7rLWQM5dkeuoQ-12" value="" style="html=1;points=[];perimeter=orthogonalPerimeter;rounded=0;shadow=0;comic=0;labelBackgroundColor=none;strokeWidth=1;fontFamily=Verdana;fontSize=12;align=center;" vertex="1" parent="7baba1c4bc27f4b0-8">
          <mxGeometry x="110" y="240" width="20" height="70" as="geometry" />
        </mxCell>
        <mxCell id="SpWWyYX7rLWQM5dkeuoQ-14" value="" style="endArrow=open;html=1;rounded=0;endFill=0;endSize=12;" edge="1" parent="7baba1c4bc27f4b0-8">
          <mxGeometry width="50" height="50" relative="1" as="geometry">
            <mxPoint x="115" y="240" as="sourcePoint" />
            <mxPoint x="340" y="240" as="targetPoint" />
          </mxGeometry>
        </mxCell>
        <mxCell id="SpWWyYX7rLWQM5dkeuoQ-24" value="4: сохранить заказ" style="text;html=1;strokeColor=none;fillColor=none;align=center;verticalAlign=middle;whiteSpace=wrap;rounded=0;" vertex="1" parent="7baba1c4bc27f4b0-8">
          <mxGeometry x="-100" y="460" width="310" height="20" as="geometry" />
        </mxCell>
        <mxCell id="SpWWyYX7rLWQM5dkeuoQ-10" value="1: Создать новый заказ" style="text;html=1;strokeColor=none;fillColor=none;align=center;verticalAlign=middle;whiteSpace=wrap;rounded=0;" vertex="1" parent="7baba1c4bc27f4b0-8">
          <mxGeometry x="-65" y="100" width="150" height="20" as="geometry" />
        </mxCell>
        <mxCell id="SpWWyYX7rLWQM5dkeuoQ-15" value="2: Открыть форму" style="text;html=1;strokeColor=none;fillColor=none;align=center;verticalAlign=middle;whiteSpace=wrap;rounded=0;" vertex="1" parent="7baba1c4bc27f4b0-8">
          <mxGeometry x="110" y="200" width="150" height="20" as="geometry" />
        </mxCell>
        <mxCell id="SpWWyYX7rLWQM5dkeuoQ-9" value="" style="endArrow=open;html=1;rounded=0;endFill=0;endSize=12;" edge="1" parent="1" target="SpWWyYX7rLWQM5dkeuoQ-11">
          <mxGeometry width="50" height="50" relative="1" as="geometry">
            <mxPoint x="230" y="120" as="sourcePoint" />
            <mxPoint x="380" y="120" as="targetPoint" />
          </mxGeometry>
        </mxCell>
        <mxCell id="SpWWyYX7rLWQM5dkeuoQ-19" value="" style="endArrow=open;html=1;rounded=0;endFill=0;endSize=12;entryX=-0.25;entryY=-0.025;entryDx=0;entryDy=0;entryPerimeter=0;" edge="1" parent="1" target="SpWWyYX7rLWQM5dkeuoQ-18">
          <mxGeometry width="50" height="50" relative="1" as="geometry">
            <mxPoint x="230" y="360" as="sourcePoint" />
            <mxPoint x="530" y="360" as="targetPoint" />
          </mxGeometry>
        </mxCell>
        <mxCell id="SpWWyYX7rLWQM5dkeuoQ-20" value="3: ввести номер заказа, заказчика и число заказываемых предметов" style="text;html=1;strokeColor=none;fillColor=none;align=center;verticalAlign=middle;whiteSpace=wrap;rounded=0;" vertex="1" parent="1">
          <mxGeometry x="210" y="320" width="480" height="40" as="geometry" />
        </mxCell>
        <mxCell id="SpWWyYX7rLWQM5dkeuoQ-23" value="" style="endArrow=open;html=1;rounded=0;endFill=0;endSize=12;entryX=0.05;entryY=-0.05;entryDx=0;entryDy=0;entryPerimeter=0;" edge="1" parent="1" target="SpWWyYX7rLWQM5dkeuoQ-22">
          <mxGeometry width="50" height="50" relative="1" as="geometry">
            <mxPoint x="220" y="480" as="sourcePoint" />
            <mxPoint x="530" y="480" as="targetPoint" />
          </mxGeometry>
        </mxCell>
        <mxCell id="SpWWyYX7rLWQM5dkeuoQ-29" value="5: Создать пустой заказ" style="text;html=1;strokeColor=none;fillColor=none;align=center;verticalAlign=middle;whiteSpace=wrap;rounded=0;" vertex="1" parent="1">
          <mxGeometry x="770" y="520" width="140" height="30" as="geometry" />
        </mxCell>
        <mxCell id="SpWWyYX7rLWQM5dkeuoQ-42" value="6: ввести номер заказа, заказчика и число заказываемых предметов" style="text;html=1;strokeColor=none;fillColor=none;align=center;verticalAlign=middle;whiteSpace=wrap;rounded=0;" vertex="1" parent="1">
          <mxGeometry x="710" y="680" width="240" height="40" as="geometry" />
        </mxCell>
        <mxCell id="SpWWyYX7rLWQM5dkeuoQ-45" value="7: сохранить заказ" style="text;html=1;strokeColor=none;fillColor=none;align=center;verticalAlign=middle;whiteSpace=wrap;rounded=0;" vertex="1" parent="1">
          <mxGeometry x="710" y="850" width="240" height="30" as="geometry" />
        </mxCell>
        <mxCell id="SpWWyYX7rLWQM5dkeuoQ-47" value="" style="endArrow=none;dashed=1;html=1;rounded=0;endSize=12;startArrow=none;" edge="1" parent="1" source="SpWWyYX7rLWQM5dkeuoQ-49" target="SpWWyYX7rLWQM5dkeuoQ-48">
          <mxGeometry width="50" height="50" relative="1" as="geometry">
            <mxPoint x="220" y="1001" as="sourcePoint" />
            <mxPoint x="220" y="40" as="targetPoint" />
          </mxGeometry>
        </mxCell>
        <mxCell id="SpWWyYX7rLWQM5dkeuoQ-48" value="продавец" style="shape=umlActor;verticalLabelPosition=bottom;verticalAlign=top;html=1;outlineConnect=0;" vertex="1" parent="1">
          <mxGeometry x="205" y="-10" width="30" height="60" as="geometry" />
        </mxCell>
        <mxCell id="SpWWyYX7rLWQM5dkeuoQ-49" value="" style="html=1;points=[];perimeter=orthogonalPerimeter;rounded=0;shadow=0;comic=0;labelBackgroundColor=none;strokeWidth=1;fontFamily=Verdana;fontSize=12;align=center;" vertex="1" parent="1">
          <mxGeometry x="210" y="120" width="20" height="70" as="geometry" />
        </mxCell>
        <mxCell id="SpWWyYX7rLWQM5dkeuoQ-50" value="" style="endArrow=none;dashed=1;html=1;rounded=0;endSize=12;startArrow=none;" edge="1" parent="1" source="SpWWyYX7rLWQM5dkeuoQ-51" target="SpWWyYX7rLWQM5dkeuoQ-49">
          <mxGeometry width="50" height="50" relative="1" as="geometry">
            <mxPoint x="220" y="1001" as="sourcePoint" />
            <mxPoint x="220" y="50" as="targetPoint" />
          </mxGeometry>
        </mxCell>
        <mxCell id="SpWWyYX7rLWQM5dkeuoQ-51" value="" style="html=1;points=[];perimeter=orthogonalPerimeter;rounded=0;shadow=0;comic=0;labelBackgroundColor=none;strokeWidth=1;fontFamily=Verdana;fontSize=12;align=center;" vertex="1" parent="1">
          <mxGeometry x="210" y="360" width="20" height="70" as="geometry" />
        </mxCell>
        <mxCell id="SpWWyYX7rLWQM5dkeuoQ-52" value="" style="endArrow=none;dashed=1;html=1;rounded=0;endSize=12;startArrow=none;" edge="1" parent="1" source="SpWWyYX7rLWQM5dkeuoQ-53" target="SpWWyYX7rLWQM5dkeuoQ-51">
          <mxGeometry width="50" height="50" relative="1" as="geometry">
            <mxPoint x="220" y="1001" as="sourcePoint" />
            <mxPoint x="220" y="190" as="targetPoint" />
          </mxGeometry>
        </mxCell>
        <mxCell id="SpWWyYX7rLWQM5dkeuoQ-53" value="" style="html=1;points=[];perimeter=orthogonalPerimeter;rounded=0;shadow=0;comic=0;labelBackgroundColor=none;strokeWidth=1;fontFamily=Verdana;fontSize=12;align=center;" vertex="1" parent="1">
          <mxGeometry x="210" y="480" width="20" height="70" as="geometry" />
        </mxCell>
        <mxCell id="SpWWyYX7rLWQM5dkeuoQ-54" value="" style="endArrow=none;dashed=1;html=1;rounded=0;endSize=12;" edge="1" parent="1" target="SpWWyYX7rLWQM5dkeuoQ-53">
          <mxGeometry width="50" height="50" relative="1" as="geometry">
            <mxPoint x="220" y="1001" as="sourcePoint" />
            <mxPoint x="220" y="430" as="targetPoint" />
          </mxGeometry>
        </mxCell>
      </root>
    </mxGraphModel>
  </diagram>
</mxfile>
